<svg xmlns="http://www.w3.org/2000/svg" viewBox="0 0 2048 2048"><path fill="#101010" d="m1024 1692q66 0 64 66 1 55-64 55-66 0-64-55-3-66 64-66m0-1204q0-114-101-198.5t-223-84.5h-495q0 117 65 179t142 62h250q51 0 88 7t71 60q12 20 10 16h76q-7-21-3-13-45-105-109-124.5t-146-19.5h-240q-52 0-86-40t-34-53h424q66 0 158.5 65t93.5 185h-341q67 116 72 229-114 119-162 223.5t-6 223.5q33 96 118 189.5t312 246.5q-17 11-46 36t-29 79q0 58 41 96t100 38q58 0 99.5-38t41.5-96q0-54-29.5-79t-45.5-36q226-153 311-246.5t119-189.5q42-119-6-223.5t-162-223.5q4-113 72-229h-341q0-120 93-185t159-65h424q0 13-34.5 53t-85.5 40h-240q-83 0-146.5 19.5t-108.5 124.5q4-8-3 13h76q-2 4 10-16 33-53 70-60t89-7h250q76 0 141.5-62t65.5-179h-495q-123 0-223.5 84.5t-100.5 198.5m0 114h283q-28 84-29 154-120 41-254 38-135 3-254-38-2-70-29-154h283m0 267q159 1 285-42 189 180 142 346-60 193-427 431-368-238-427-431-48-166 142-346 125 43 285 42m-47 361v104h94v-104h95v-89h-95v-165h-94v165h-95v89h95" transform="matrix(1 0 0-1 0 2048)"/><g fill="#f9f9f9"><path d="m980.18 333.34c-22.19-22.19-22.19-55.912 0-78.1 35.838-35.838 104.14-10.227 104.14 39.05 0 29.457-29.02 56.41-60.746 56.41-14.463 0-33.748-7.714-43.39-17.356"/><path d="m691.56 1162.92c-86.02-103.3-118.43-217.51-85.2-300.22 23.461-58.4 87.63-145.48 152.85-207.44 66.66-63.32 193.84-161.71 243.79-188.62l27.338-14.722 90.79 66.17c230.31 167.84 347.23 323.44 333.17 443.41-6.809 58.11-46.04 138.16-98.72 201.43l-44.05 52.902-63.71-17.462c-53.17-14.572-90.28-17.462-224.25-17.462-133.97 0-171.09 2.89-224.25 17.462l-63.71 17.462-44.05-52.902m384.08-165.72v-82.44h47.729 47.729v-52.07-52.07h-47.729-47.729v-52.07-52.07h-52.07-52.07v52.07 52.07h-47.729-47.729v52.07 52.07h47.729 47.729v82.44 82.44h52.07 52.07v-82.44"/><path d="m745.98 1441.95c.057-1.193 5.868-23.648 12.914-49.898 7.05-26.25 12.857-58.36 12.914-71.35.092-21.16 5.31-25.23 50-39.05 70.888-21.919 331.58-22.261 401.71-.528l48.08 14.901 10.223 59.62c5.623 32.79 12.715 66.11 15.761 74.05 5.092 13.27-16.858 14.43-273.09 14.43-153.24 0-278.58-.976-278.52-2.169"/><path d="m312.23 1738.82c38.2-53.651 46.22-55.57 255.33-61.24 105.27-2.851 205.33-9.687 222.44-15.198 38.632-12.44 87.31-60.14 107.85-105.69 12.794-28.372 19.886-34.478 40.05-34.478 22.92 0 24.16 1.818 19.307 28.2-15.617 84.84-58.861 136.72-153.91 184.65l-59.742 30.13h-225.05-225.05l18.788-26.385"/><path d="m1243.85 1735.08c-95.59-48.21-135.09-94-150.02-173.92-7.119-38.11-6.792-38.927 15.471-38.674 18.44.209 28.17 9.652 51.42 49.898 53.855 93.24 92.61 105.79 327.12 105.96 183.71.13 205 5.216 245.52 58.666l21.383 28.2h-225.57-225.57l-59.742-30.13"/></g></svg>