<svg xmlns="http://www.w3.org/2000/svg" viewBox="0 0 2048 2048"><path fill="#101010" d="m502 1180l-52-1-26-64 69-21 46 55zm536 187q34-1-16 68t-80 42l-116-109zm-338 98q6 39 115.5 107.5t220.5 143.5l115 154 96-217q342-172 432.5-417.5t47.5-603.5q-18-128 4.5-236t57.5-190l-1242-1q-9 178 39 301.5t183 237.5q50 11 82.5 39.5t53.5 58.5l62.5 1t138 29 139 97 66.5 207q0 17-8.5 34t-11.5 37q-62-228-161-288.5t-191-58.5q-236 42-292-60l-56-102-217 121 115 82-51 50-122-86-12 297zm981-1192q-102 130-85 308.5t27 362.5-50 351.5-316 275.5q220-164 252.5-342t16.5-350.5-12-329 167-276.5" transform="matrix(1 0 0-1 0 2048)"/><g fill="#ececec"><path d="m1601.31 1693.04c-81.08-89.75-91.58-156.54-74.23-472.05 20.379-370.45-8.751-495.12-150.56-644.34-28.348-29.831-47.814-54.24-43.26-54.24 17.02 0 100.11 58.43 144.65 101.73 57.05 55.45 86.14 107.89 109.64 197.66 34.994 133.69 37.544 201.94 17.328 463.82-19.991 258.96-17.542 312.62 18.06 395.67 9.698 22.626 16.13 42.64 14.293 44.48-1.837 1.837-18-12.891-35.927-32.729"/><path d="m896.7 621.33c55.683-53.27 60.42-55.961 78.1-44.38 26.07 17.08 76.4 84.07 70.43 93.73-2.697 4.364-50.558 7.805-106.36 7.646l-101.45-.289 59.28-56.71"/><path d="m464.27 941.45c-27.441-6.601-31.27-14.684-20.96-44.26 7.682-22.04 14.483-27.656 33.481-27.656 13.11 0 30.363 7.207 38.33 16.02 13.592 15.02 13.367 17.451-3.624 39.05-9.965 12.669-20.764 22.581-23.997 22.03-3.233-.554-13.689-2.885-23.23-5.181"/></g></svg>