<svg xmlns="http://www.w3.org/2000/svg" viewBox="0 0 2048 2048"><path fill="#101010" d="m1004 956q31-17 54-42 21 15 36.5 13.5t33.5 1.5q78 11 128.5 85t52.5 165l-19 67q-55-239-188-257-21-3-45-5.5t-53-27.5m-258 449l-46 60q6 39 115.5 107.5t220.5 143.5l115 154 96-217q342-172 432.5-417.5t47.5-603.5q-18-128 4.5-236.5t57.5-190.5h-1242q-9 178 39 301.5t183 237.5q78 16 115 71t55 85q-236 42-292-60l-56-102-217 121 115 82-51 50-122-86-12 297 396 263q12-18 23-31t23-29l-366-241 4-125 64 41 138-144-78-65 47-28 38.5 45t108.5 73q54 18 165 27t191-74q-56-63-91-132.5t-152-102.5q-92-79-146-176.5t-48-223.5h1019q-35 133-32 234.5t12.5 199 9 205-40.5 252.5q-51 126-134 234t-262 188l-59 133-49-69q-99-62-208-131t-131-120m292-30l-212 2 116 100q30 25 80-38.5t16-63.5m-536-195l37-31-46-55-57 26 33 56z" transform="matrix(1 0 0-1 0 2048)"/><path d="m627.95 1706.31c7.06-76.01 30.659-139.69 76.01-205.14 55.613-80.26 94.33-116.15 155.14-143.79 71.3-32.421 79.39-39.881 134.58-124.23 62.21-95.07 76.39-108.44 115.26-108.67 42.31-.25 94.91-25.321 129.39-61.66 56.14-59.18 85.65-170 63.3-237.71l-10.907-33.05-23.646 70.47c-34.13 101.72-65.49 146.5-123.42 176.21-17.708 9.08-42.24 16.511-54.52 16.511-12.276 0-36.546 5.944-53.934 13.209-28.59 11.945-35.748 11.837-74.81-1.137-46.585-15.473-144.08-12.378-222.56 7.07-42.821 10.609-159.72 84.48-168.05 106.2-6.115 15.936-24.21 17.583-38.31 3.487-7.573-7.573-1.339-17.721 25.536-41.571l35.555-31.552-69.61-73.35-69.61-73.35-30.334 14.465-30.334 14.466-5.428-39.602c-2.985-21.781-5.428-45.02-5.428-51.639 0-6.62 82.03-66.33 182.29-132.7 100.26-66.36 193.01-133.62 206.1-149.46 36.26-43.863 48.45-52.978 190.71-142.59 95.77-60.32 137.52-91.89 151.55-114.59l19.362-31.33 29.557 66.08c26.02 58.18 33.823 68 65.2 82.12 190.44 85.69 333.52 273.37 379.39 497.66 19.552 95.59 19.822 149.11 2.625 520.68-4.224 91.27-2.3 132.22 8.711 185.34 7.773 37.5 14.13 71.67 14.13 75.932 0 4.459-214.26 7.75-504.57 7.75h-504.57l5.625-60.53m-100.15-821.94c-27.19-28.941-55.878-25.884-76.64 8.167-22.559 37-22.12 39.11 10.943 53.1 26.933 11.396 29.471 10.737 56.36-14.65l28.16-26.584-18.823-20.04m523.57-232.45c-4.658-26.618-52.53-82.09-75.909-87.95-24.656-6.188-41.776 4.14-107.66 64.955l-47.729 44.05 117.15-1.947c111.41-1.852 117.01-2.789 114.15-19.11" fill="#f9f9f9"/></svg>