<svg xmlns="http://www.w3.org/2000/svg" viewBox="0 0 2048 2048"><path fill="#101010" d="m520 279h1008q8 97-132 182-132 101-196.5 239.5t-79.5 308.5h-192q-15-170-79.5-308.5t-196.5-239.5q-141-85-132-182m504-74h-578v74q-4 80 41.5 137t125.5 108q117 91 171.5 217.5t78.5 267.5h-287l284 239q-86 74-86 188 0 103 73 177t177 74q103 0 176.5-74t73.5-177q0-114-86-188l284-239h-287q23-141 78-267.5t172-217.5q79-51 124.5-108t42.5-137v-74h-578m-268 869h536l-225 191q134 31 134 171 0 76-52.5 126.5t-124.5 50.5q-73 0-125-50.5t-52-126.5q0-140 134-171z" transform="matrix(1 0 0-1 0 2048)"/><g fill="#f9f9f9"><path d="m873.46 881.35c56.55-47.912 103.9-90.23 105.23-94.03 1.329-3.803-13.56-14.12-33.09-22.924-152.25-68.66-108.09-302.54 60.901-322.55 35.536-4.209 51.16-1.043 90.96 18.429 129.28 63.25 132.26 246.71 4.938 304.12-19.526 8.805-34.415 19.12-33.09 22.924 1.329 3.803 48.683 46.12 105.23 94.03l102.81 87.11h-253.36-253.36l102.81-87.11"/><path d="m781.02 961.87c0-3.625 7.03-10.98 15.62-16.345 21.2-13.237 178.93-152.07 182.42-160.56 1.532-3.729-7.254-9.299-19.525-12.379-12.271-3.08-22.311-8.422-22.311-11.871 0-3.449-9.724-11.475-21.608-17.835-49.579-26.534-72.35-127.53-44.04-195.3 5.983-14.32 11.486-28.966 12.228-32.546 2.212-10.668 35.37-41.22 44.739-41.22 4.773 0 8.678-3.234 8.678-7.188 0-13.201 81.947-26.787 115.68-19.18 50.734 11.442 116.79 62.13 126.21 96.84 19.736 72.75 19.432 102.64-1.454 142.97-15.955 30.812-66.02 77.4-92.05 85.66-10.546 3.347-17.984 8.949-16.528 12.449 3.419 8.218 161.76 147.33 182.28 160.14 8.591 5.365 15.62 12.72 15.62 16.345 0 3.625-109.34 6.591-242.98 6.591-133.64 0-242.98-2.966-242.98-6.591"/><path d="m520.68 1757.88c0-15.851 26.24-72.33 41.551-89.46 8.171-9.134 50.11-45.02 93.19-79.76 152.94-123.29 233.59-266.51 265.98-472.36l10.973-69.74h91.63 91.63l10.973 69.74c31.04 197.27 113.68 349.53 248.11 457.12 115.04 92.08 133.84 113.73 147.22 169.55l5.722 23.864h-503.49c-340.32 0-503.49-2.903-503.49-8.957"/></g></svg>