<svg xmlns="http://www.w3.org/2000/svg" viewBox="0 0 2048 2048"><path fill="#101010" d="m1024 279h478q-53 130-43 280-100 39-213 67.5t-222 28.5q-110 0-223-28.5t-212-67.5q9-150-43-280h478m0 450q111 0 223.5-26.5t220.5-67.5q17 105 60.5 212.5t105.5 212.5l-220-155-123 601-267-555-267 555-123-601-220 155q61-105 104.5-212.5t61.5-212.5q108 41 220.5 67.5t223.5 26.5m0-524h-583q114 231 57.5 456.5t-202.5 449.5q-12-2-19-2-54 0-92.5 38.5t-38.5 92.5 38.5 92.5 92.5 38.5 92.5-38.5 38.5-92.5q0-20-6-38-4-14-15-33l196-139 100 486q-64 31-72 103-5 44 29 91t88 53q54 5 96-29t48-88q7-68-46-114l198-412 198 412q-54 46-46 114 6 54 48 88t96 29q54-6 87.5-53t29.5-91q-9-72-72-103l100-486 196 139q-12 19-15 33-6 18-6 38 0 54 38.5 92.5t92.5 38.5 92.5-38.5 38.5-92.5-38.5-92.5-92.5-38.5q-7 0-19 2-147-224-203-449.5t58-456.5h-583m-748 1097q-62 0-62-62t62-62q63 0 63 62t-63 62m466 394q-62 0-62-62t62-62 62 62-62 62m-152-1167l119-72-134-86q19 86 15 158m1182 773q-63 0-63-62t63-62q62 0 62 62t-62 62m-466 394q-62 0-62-62t62-62 62 62-62 62m152-1167l-119-72 134-86q-20 86-15 158m-573-47l139 83 139-86-139-84z" transform="matrix(1 0 0-1 0 2048)"/><g fill="#f9f9f9"><path d="m576.77 1374.16c-14.267-66.74-52.33-173.44-91.81-257.39-23.37-49.688-40.834-92-38.81-94.02 2.025-2.025 45.83 26.18 97.34 62.67l93.66 66.35 58.45-284.73c32.15-156.6 59.63-290.3 61.08-297.11 1.449-6.809 60.945 109.37 132.21 258.17 71.27 148.8 132.06 270.55 135.1 270.55 3.039 0 63.834-121.75 135.1-270.55 71.27-148.8 130.76-264.98 132.21-258.17 1.449 6.809 28.936 140.51 61.08 297.11l58.45 284.73 93.66-66.35c51.51-36.492 95.54-64.47 97.84-62.17 2.297 2.297-11.957 36.26-31.675 75.48-38.474 76.52-78.32 184.4-95.31 258.09-5.781 25.06-13.05 45.49-16.15 45.41-3.104-.084-41.66-11.521-85.68-25.415-142.54-44.987-212.99-56.34-349.52-56.34-136.53 0-206.99 11.357-349.52 56.34-44.02 13.894-82.66 25.331-85.86 25.415-3.2.084-8.532-12.538-11.848-28.05"/><path d="m558.93 1747.31c3.058-10.739 7.771-29.588 10.474-41.887 3.574-16.262 23.603-34.02 73.42-65.08 37.681-23.498 68.57-45.2 68.64-48.24.071-3.03-27.21-22.03-60.62-42.22-33.41-20.19-60.746-41.34-60.746-47.01 0-12.768 141.32-59.812 251.36-83.67 110.96-24.06 254.12-24.06 365.08 0 110.04 23.861 251.36 70.905 251.36 83.67 0 5.666-27.336 26.819-60.746 47.01-33.41 20.19-60.66 39.18-60.55 42.22.105 3.03 29.429 23.901 65.16 46.38 62.842 39.523 73.804 52.953 87.38 107.05l5.349 21.312h-470.56-470.56l5.56-19.525m538.53-132.99c35.966-21.835 65.37-42.34 65.35-45.559-.054-7.143-127.71-88.3-138.9-88.3-14.728 0-139.63 79.83-137.01 87.57 3.402 10.05 121 84.65 134.62 85.41 5.797.321 39.966-17.281 75.932-39.12"/><path d="m1738.19 857.44c-27.924-17.75-27.853-81.33.111-99.11 35.34-22.468 92.75 8.227 92.75 49.589 0 41.43-57.41 72.05-92.86 49.52"/><path d="m1284.34 467.98c-34.28-12.725-46.693-67.72-21.08-93.33 17.576-17.576 67.964-17.576 85.54 0 16.362 16.362 17.817 55.675 2.789 75.35-12.148 15.903-47.44 25.342-67.25 17.987"/><path d="m720.27 467.98c-34.28-12.725-46.693-67.72-21.08-93.33 17.576-17.576 67.964-17.576 85.54 0 16.362 16.362 17.817 55.675 2.789 75.35-12.148 15.903-47.44 25.342-67.25 17.987"/><path d="m234.31 846.97c-22.19-22.19-22.19-55.912 0-78.1 17.441-17.441 56.1-22.802 75.5-10.47 27.924 17.75 27.853 81.33-.111 99.11-19.299 12.271-57.988 6.863-75.39-10.538"/></g></svg>