<svg xmlns="http://www.w3.org/2000/svg" viewBox="0 0 2048 2048"><path fill="#101010" d="m590 529q4-72-15-158l134 86zm434-324h-583q114 231 57.5 456.5t-202.5 449.5q-12-2-19-2-54 0-92.5 38.5t-38.5 92.5 38.5 92.5 92.5 38.5 92.5-38.5 38.5-92.5q0-20-6-38-4-14-15-33l196-139 100 486q-64 31-72 103-5 44 29 91t88 53q54 5 96-29t48-88q7-68-46-114l198-412 198 412q-54 46-46 114 6 54 48 88t96 29q54-6 87.5-53t29.5-91q-9-72-72-103l100-486 196 139q-12 19-15 33-6 18-6 38 0 54 38.5 92.5t92.5 38.5 92.5-38.5 38.5-92.5-38.5-92.5-92.5-38.5q-7 0-19 2-147-224-203-449.5t58-456.5h-583m0 450q109 0 222-28.5t213-67.5q2 41 11 89-108 42-221.5 68t-224.5 26-225-26-221-68q8-48 11-89 99 39 212 67.5t223 28.5m0-376h478q-15 34-24 73h-454-454q-10-39-24-73h478m434 250l-119-72 134-86q-20 86-15 158m-573-47l139-87 139 84-139 86z" transform="matrix(1 0 0-1 0 2048)"/><g fill="#ececec"><path d="m555.39 1758.58c0-1.674 4.287-15.342 9.527-30.373l9.527-27.329h449.56 449.56l9.527 27.329c5.24 15.03 9.527 28.699 9.527 30.373 0 1.674-210.87 3.044-468.61 3.044-257.74 0-468.61-1.37-468.61-3.044"/><path d="m952.36 1602.43l-58.62-37.25 65.14-37.27 65.14-37.27 60.737 36.08c33.406 19.846 60.662 38.838 60.57 42.2-.231 8.51-108.89 71.26-122.91 70.98-6.287-.124-37.81-16.989-70.05-37.478"/><path d="m1412.92 1632.67c-27.12-17.371-49.39-35.488-49.47-40.26-.086-4.773 20.15-21.507 44.975-37.19l45.13-28.508 5.203 67.56c2.861 37.16 4.814 68.1 4.339 68.769-.475.666-23.05-13-50.18-30.373"/><path d="m588.8 1452.53c-.716-16.14-1.692-33.641-2.169-38.893-2.095-23.05 203.92-80.79 343.77-96.34 72.02-8.01 114.69-8.09 184.08-.331 140.57 15.709 348.97 73.78 346.89 96.67-.477 5.252-1.454 22.753-2.169 38.893l-1.302 29.344-101.97-32.592c-133.92-42.805-210.81-55.709-331.93-55.709-121.13 0-198.02 12.905-331.93 55.709l-101.97 32.592-1.302-29.345"/><path d="m587.65 1602.76c2.111-34.33 4.524-65.41 5.361-69.07.837-3.657 24.25 7.568 52.03 24.944 27.779 17.376 47.28 34.594 43.34 38.26-3.941 3.668-29.08 20.531-55.869 37.474l-48.704 30.806 3.838-62.42"/></g></svg>