<svg xmlns="http://www.w3.org/2000/svg" viewBox="0 0 2048 2048"><path fill="#101010" d="m1024 279h489l-12 73h-477-477l-12-73h489m0 921q-25 60-62 111 31 48 62 65 30-17 62-65-38-51-62-111m-97-454q-154-11-303-58-123 108-200 213.5t-77 201.5q0 89 73.5 159t148.5 70q67 0 134.5-62.5t102.5-130.5q30-54 75-175t46-218m-350-217l-26-156 145 84zm447 907q-47 0-136-121-31 36-50 55 93 140 186 140 92 0 186-140-20-19-50-55-90 121-136 121m0-775q-1 126-42 267.5t-84 226.5q-8 14-14 27t-12 23q-28 43-48 69-51 63-120 105t-134 42q-103 0-208-93t-105-229q0-120 99-254.5t249-259.5q201 74 419 76m0-456h-576l61 365q-325 280-326 535-1 159 125 274.5t267 115.5q78 0 158.5-47t142.5-119q61-74 98.5-164.5t49.5-150.5q12 60 49 150.5t99 164.5q61 72 142 119t159 47q140 0 266-115.5t126-274.5q-2-255-326-535l61-365h-576m97 541q0 97 45 218t76 175q34 68 101.5 130.5t135.5 62.5q74 0 147.5-70t74.5-159q0-96-77-201.5t-200-213.5q-150 47-303 58m350-217l-119-72 145-84zm-447 132q217-2 419-76 150 125 249 259.5t99 254.5q0 136-105.5 229t-207.5 93q-66 0-135-42t-119-105q-21-26-48-69-6-10-12.5-23l-13.5-27q-44-85-85-226.5t-41-267.5m-139-159l139-86 139 84-139 86zm92 1248v95h94v-95h107v-95h-107v-153q-48 16-94 0v153h-107v95h107" transform="matrix(1 0 0-1 0 2048)"/><g fill="#ececec"><path d="m1401.49 1445.02c-78.866-27.972-280.85-63.49-361.06-63.49-13.573 0-8.37-92.94 9.932-177.41 46.541-214.81 134.47-397.66 231.48-481.34 104.29-89.96 202.43-110.29 301.88-62.55 101.71 48.823 168.86 126.48 192.61 222.74 11.952 48.43 12.507 65.835 3.633 113.99-20.05 108.8-81.38 205.36-221.24 348.3-110 112.43-114.13 115.05-157.24 99.75m122.82-179.66c134.76-141.46 175.48-214.46 176.19-315.84.468-67.04-13.433-101.84-61.52-154.01-143.41-155.58-315.1-83.45-434.4 182.49-42.621 95.01-76.49 206.1-82.52 270.65-5.706 61.11-10.231 57.49 84.8 67.765 26.597 2.875 83.22 14.376 125.83 25.557 42.61 11.181 81.974 20.749 87.48 21.263 5.502.513 52.36-43.533 104.14-97.88"/><path d="m522.69 1378.76c-239.84-230.93-308.11-402.66-225.69-567.69 10.704-21.433 41-58.671 67.33-82.75 103.39-94.56 209.17-117.57 308.99-67.24 104.94 52.919 177.35 137.23 237.93 277.02 58.53 135.07 104.07 310.16 104.07 400.1v41.936l-58.58 5.339c-104.01 9.48-214.78 29.587-283.86 51.52l-67.45 21.418-82.74-79.67m186.38-35.874c46.727-11.709 106.44-23.66 132.69-26.558 95.02-10.492 89.91-6.206 83.92-70.4-6.617-70.859-56.46-218.83-106.45-316.05-88.35-171.8-210.07-249.01-320.08-203.05-44.16 18.451-116.44 87.49-135.75 129.68-19.05 41.607-20.987 132.18-3.852 180.21 22.655 63.49 71.08 130.94 164.15 228.64 51.772 54.35 95.55 98.81 97.28 98.81 1.731 0 41.38-9.58 88.11-21.288"/><path d="m1003.37 949.74c-16.522-50.557-72.05-164.2-97.31-199.14-13.352-18.472-11.901-21.12 41.579-75.932 38-38.95 61.994-56.792 76.36-56.792 14.367 0 38.36 17.842 76.36 56.792 53.717 55.05 54.98 57.38 41.28 75.932-24.02 32.532-99.74 191.13-105.47 220.9-2.983 15.512-7.919 28.18-10.967 28.14-3.048-.035-12.872-22.489-21.829-49.898m56.667-157.68l31.702-59.818-28.534-31.15c-15.694-17.13-33.34-31.15-39.21-31.15-5.872 0-23.516 14.02-39.21 31.15l-28.534 31.15 31.702 59.818c17.436 32.9 33.655 59.818 36.04 59.818 2.386 0 18.605-26.918 36.04-59.818"/><path d="m961.08 1587.56c-32.22-20.14-58.54-38.607-58.5-41.05.041-2.439 27.07-21.09 60.06-41.44l59.983-37 61.43 36.958c33.789 20.327 61.43 39.462 61.43 42.522 0 4.915-115.84 77.23-123.01 76.79-1.552-.096-29.18-16.649-61.4-36.785"/><path d="m558.78 1652.32c2.366-8.133 6.963-34.31 10.215-58.18 8.994-66 11.04-67.19 62.33-36.29 25.06 15.1 45.559 29.911 45.559 32.917 0 3.01-27.542 21.41-61.2 40.899-45.12 26.12-60.07 31.548-56.901 20.648"/><path d="m1431.86 1631.72c-31.02-18.304-57.39-36.23-58.6-39.834-2.448-7.322 86.95-63.41 92.39-57.967 3.417 3.417 26.464 128.97 23.928 130.36-.722.395-26.695-14.258-57.719-32.562"/><path d="m545.06 1732.99l3.546-30.373h475.39 475.39l3.546 30.373 3.546 30.373h-482.48-482.48l3.546-30.373"/></g></svg>