<svg xmlns="http://www.w3.org/2000/svg" viewBox="0 0 2048 2048"><path fill="#101010" d="m977 1750v95h94v-95h107v-95h-107v-153q-48 16-94 0v153h-107v95h107m47-314q-47 0-136-121-31 36-50 55 93 140 186 140 92 0 186-140-20-19-50-55-90 121-136 121m-447-907l-26-156 145 84zm410 206q-1 147-36.5 274.5t-80.5 193.5q-45 88-131.5 153t-168.5 65q-103 0-208-93t-105-229q0-109 86.5-236t202.5-223q212 88 441 95m37-530h-576l61 365q-325 280-326 535-1 159 125 274.5t267 115.5q78 0 158.5-47t142.5-119q61-74 98.5-164.5t49.5-150.5q12 60 49 150.5t99 164.5q61 72 142 119t159 47q140 0 266-115.5t126-274.5q-2-255-326-535l61-365h-576m0 74h489l-50 298q-216 84-439 84t-439-84l-50-298h489m447 250l26-156-145 84zm-410 206q229-7 441-95 115 96 202 223t87 236q0 136-105.5 229t-207.5 93q-83 0-169.5-65t-130.5-153q-46-66-81.5-193.5t-35.5-274.5m-176-233l141 84 137-86-141-84z" transform="matrix(1 0 0-1 0 2048)"/><g fill="#f9f9f9"><path d="m467.47 1324.74c-134.73-139.37-200.43-259.64-201.73-369.29-1.048-88.46 19.993-141.28 83.19-208.83 138.72-148.29 296.8-148.96 437.61-1.859 62.5 65.3 107.3 142.85 142.49 246.69 27.829 82.11 51.47 207.49 51.53 273.23.038 44.38-8.359 50.53-69.39 50.82-55.25.266-185.22 26.978-277.69 57.07l-91.12 29.655-74.9-77.48"/><path d="m1012.25 976.98c-8.887-44.43-58.19-154.84-89.42-200.24l-29.692-43.16 32.06-39.13c78.3-95.55 119.29-95.55 197.59 0l32.06 39.13-29.692 43.16c-31.23 45.4-80.53 155.81-89.42 200.24-6.697 33.483-16.797 33.483-23.494 0"/><path d="m470.38 1325.68c-144.2-160.88-192.66-246.86-199.54-354.04-5.05-78.71 8.738-131.79 47.4-182.43 15.887-20.813 28.886-41.714 28.886-46.45 0-4.732 4.366-8.603 9.702-8.603 5.336 0 23.707-12.297 40.824-27.326 77.15-67.74 174.23-86.49 259.19-50.07 155.95 66.848 266.03 245.2 309.82 501.97 23.774 139.4 17.619 156.84-55.33 156.84-58.32 0-162.09 20.978-264.79 53.53-47.743 15.13-91.75 28.467-97.79 29.633-6.04 1.166-41.31-31.713-78.37-73.06"/><path d="m1410.11 1371.31c-88.7-28.986-218.81-55.56-273.29-55.826-62.6-.301-69.42-5.827-69.42-56.19 0-67.36 23.449-189.88 52.02-271.8 35.03-100.46 80.949-178.92 142.04-242.74 140.81-147.1 298.9-146.43 437.61 1.859 63.31 67.67 84.3 120.44 83.07 208.83-1.017 73.19-26.16 140.49-85.56 229.03-41.974 62.56-160.48 195.59-185.36 208.07-9.171 4.601-45.23-2.969-101.1-21.23"/><path d="m544.13 1734.29c7.759-50.49 14.791-58.42 90.54-102.11l70.887-40.887-46.876-28.476c-72.08-43.79-77.932-49.597-71.928-71.44 6-21.83 81.42-49.37 212.72-77.68 102.1-22.01 346.98-22.01 449.08 0 131.3 28.31 206.72 55.851 212.72 77.68 6 21.844.156 27.652-71.928 71.44l-46.876 28.476 70.887 40.887c75.75 43.69 82.78 51.621 90.54 102.11l5 32.542h-484.87-484.87l5-32.542m550.12-138.77c37.76-22.629 67.42-44.841 65.916-49.36-1.506-4.52-32.23-26.708-68.28-49.31l-65.54-41.09-67.73 40.639c-37.25 22.351-68.872 44.506-70.27 49.23-2.027 6.836 121.99 91.03 134.09 91.03 1.741 0 34.06-18.515 71.82-41.14"/></g></svg>