<svg xmlns="http://www.w3.org/2000/svg" viewBox="0 0 2048 2048"><path fill="#101010" d="m1024 547h-381l5 74h376 376l5-74h-381m0 661h-332l5 74h327 327l5-74h-332m0-1003h-641l29 264 159 118 50 659-149 107-17 341h289v-147h137v147h143 143v-147h137v147h289l-17-341-149-107 50-659 159-118 29-264h-641m0 74h557l-15 149-161 119-54 735 152 109 13 230h-138v-148h-285v148h-69-69v-148h-285v148h-138l13-230 152-109-54-735-161-119-15-149h557" transform="matrix(1 0 0-1 0 2048)"/><g fill="#f9f9f9"><path d="m655.83 1378.49c5.02-49.684 38.41-500.57 38.41-518.72 0-11.06 44.868-12.804 329.76-12.804 284.89 0 329.76 1.742 329.76 12.804 0 18.15 33.382 469.04 38.41 518.72l4.167 41.22h-372.33-372.33l4.167-41.22"/><path d="m624.78 707.65l-73.73-52.54-5.647-71.12c-3.106-39.12-6.03-89.67-6.508-112.34l-.861-41.22h65.08 65.08v73.76 73.76h147.53 147.53v-73.76-73.76h60.746 60.746v73.76 73.76h147.53 147.53v-73.76-73.76h65.08 65.08l-.861 41.22c-.474 22.671-3.402 73.22-6.508 112.34l-5.648 71.12-73.73 52.54-73.73 52.54h-325.48-325.48l-73.73-52.54"/><path d="m471.67 1751.65c2.324-8.353 6.751-41.06 9.838-72.68l5.612-57.5 79.33-57.49 79.33-57.49h378.21 378.21l79.33 57.49 79.33 57.49 5.612 57.5c3.086 31.623 7.514 64.33 9.838 72.68 3.993 14.349-26.452 15.186-552.33 15.186-525.88 0-556.33-.837-552.33-15.186"/></g></svg>