<svg xmlns="http://www.w3.org/2000/svg" viewBox="0 0 2048 2048"><path fill="#101010" d="m1024 205h-641l29 264 159 118 50 659-149 107-17 341h289v-147h137v147h143 143v-147h137v147h289l-17-341-149-107 50-659 159-118 29-264h-641m0 989h333l-6 88h-327-327l-6-88h333m0-647h381l-6 87h-375-375l-6-87h381" transform="matrix(1 0 0-1 0 2048)"/><g fill="#ececec"><path d="m650.85 1457.03v-39.05h373.15 373.15v39.05 39.05h-373.15-373.15v-39.05"/><path d="m694.24 837.64c0-8.949 2.441-28.475 5.424-43.39l5.424-27.12h318.92 318.92l5.424 27.12c13.07 65.33 43.88 59.661-324.34 59.661-316.65 0-329.76-.647-329.76-16.271"/></g></svg>